<?xml version="1.0" encoding="iso-8859-1"?>
<!-- Uploaded to: SVG Repo, www.svgrepo.com, Generator: SVG Repo Mixer Tools -->
<svg version="1.1" id="Layer_1" xmlns="http://www.w3.org/2000/svg" xmlns:xlink="http://www.w3.org/1999/xlink" 
	 viewBox="0 0 512 512" xml:space="preserve">
<path style="fill:#333333;" d="M133.336,454.799h245.328c13.992,0,25.336,11.342,25.336,25.332l0,0
	c0,13.99-11.344,25.332-25.336,25.332H133.336c-13.992,0-25.336-11.342-25.336-25.332l0,0
	C108,466.141,119.343,454.799,133.336,454.799z"/>
<path d="M32,45.735h448c17.673,0,32,14.327,32,32v256c0,17.673-14.327,32-32,32H32c-17.673,0-32-14.327-32-32v-256
	C0,60.062,14.327,45.735,32,45.735z"/>
<rect x="160.005" y="406.533" style="fill:#CCCCCC;" width="192.002" height="48.264"/>
<path style="fill:#FFFFFF;" d="M256,302.479c-79.529,0-144-64.471-144-144s64.471-144,144-144s144,64.471,144,144
	c0,0.018,0,0.037,0,0.056C399.895,238.012,335.476,302.404,256,302.479z"/>
<path style="fill:#E21B1B;" d="M256,22.535c75.11,0,136,60.89,136,136s-60.89,136-136,136s-136-60.89-136-136
	C120.07,83.454,180.918,22.606,256,22.535 M256,6.536c-83.947,0-152,68.052-152,151.999s68.053,152,152,152s152-68.053,152-152
	S339.947,6.536,256,6.536z"/>
<path style="fill:#FFFFFF;" d="M256,281.872c-68.13,0-123.36-55.23-123.36-123.36S187.871,35.152,256,35.152
	s123.36,55.23,123.36,123.36c0,0.008,0,0.016,0,0.024C379.268,226.623,324.087,281.792,256,281.872z"/>
<path style="fill:#CCCCCC;" d="M256,39.151c65.92,0,119.36,53.439,119.36,119.36S321.921,277.871,256,277.871
	c-65.912,0-119.346-53.425-119.36-119.336C136.702,92.636,190.101,39.227,256,39.151 M256,31.152
	c-70.339,0-127.36,57.021-127.36,127.36s57.021,127.36,127.36,127.36c70.329,0,127.347-57.007,127.36-127.336
	c0.014-70.339-56.997-127.371-127.336-127.385C256.016,31.152,256.008,31.152,256,31.152z"/>
<g>
	<polygon style="fill:#999999;" points="180.512,199.935 171.456,186.752 233.624,144.015 254.528,171.88 321.704,124.856 
		330.872,137.968 251.016,193.863 230.033,165.887 	"/>
	<polygon style="fill:#999999;" points="337.56,167.544 321.56,167.544 321.56,130.168 284.184,130.168 284.184,114.167 
		337.56,114.167 	"/>
</g>
</svg>